<svg width="256" height="256"><path fill="#8c0d0d" d="M14.214 132.113l144.047 88.471 3.545-120.201-35.121-8.418-112.471 40.148z"/><path fill="#a62626" d="M.74 44.941l13.474 87.172 112.471-40.148-.172-27.282L.74 44.941z"/><path fill="#d95959" d="M161.806 100.383l-35.121-8.418-.172-27.282 36.196 5.594-.903 30.106z"/><g><path fill="#0d8c0d" d="M161.806 100.383l82.471 20.765-86.016 99.436 3.545-120.201z"/><path fill="#59d959" d="M244.277 121.148l-82.471-20.765.903-30.106 92.551-28.06-10.983 78.931z"/></g><g><path fill="#5959d9" d="M126.009 35.416l.504 29.267 36.196 5.594 92.551-28.06-129.251-6.801z"/><path fill="#2626a6" d="M126.009 35.416l.504 29.267L.74 44.941l125.269-9.525z"/></g></svg>